<svg xmlns="http://www.w3.org/2000/svg" width="68.453" height="42" viewBox="0 0 68.453 42">
  <g id="Group_1139" data-name="Group 1139" transform="translate(-1753.547 -498)">
    <path id="Path_3642" data-name="Path 3642" d="M34.725,36.983A20.538,20.538,0,0,1,21.259,42,20.881,20.881,0,0,1,.5,21,20.881,20.881,0,0,1,21.259,0,20.538,20.538,0,0,1,34.725,5.017,20.538,20.538,0,0,1,48.19,0,20.881,20.881,0,0,1,68.949,21,20.881,20.881,0,0,1,48.19,42,20.537,20.537,0,0,1,34.725,36.983Z" transform="translate(1753.047 498)" fill="#ed0006" fill-rule="evenodd"/>
    <path id="Path_3643" data-name="Path 3643" d="M11.75,36.983A21.053,21.053,0,0,0,19.044,21,21.053,21.053,0,0,0,11.75,5.017,20.538,20.538,0,0,1,25.215,0,20.881,20.881,0,0,1,45.975,21,20.881,20.881,0,0,1,25.215,42,20.537,20.537,0,0,1,11.75,36.983Z" transform="translate(1776.025 498)" fill="#f9a000" fill-rule="evenodd"/>
    <path id="Path_3644" data-name="Path 3644" d="M16.646,1.649a21.159,21.159,0,0,1,0,31.967,21.16,21.16,0,0,1,0-31.967Z" transform="translate(1771.127 501.367)" fill="#ff5e00" fill-rule="evenodd"/>
  </g>
</svg>
