<svg xmlns="http://www.w3.org/2000/svg" width="20.412" height="20.409" viewBox="0 0 20.412 20.409">
  <g id="Icon_ionic-ios-person-add" data-name="Icon ionic-ios-person-add" transform="translate(-4.124 -4.125)">
    <path id="Path_34" data-name="Path 34" d="M20.949,20.985a23.856,23.856,0,0,0-2.667-.512,2.71,2.71,0,0,1-1.234-.568,9.362,9.362,0,0,1-.087-2.416.531.531,0,0,1,.056-.195,7.556,7.556,0,0,0,.527-1.024,11.62,11.62,0,0,0,.389-1.7.4.4,0,0,1,.2-.287.932.932,0,0,0,.4-.686,7.253,7.253,0,0,0,.379-1.715.724.724,0,0,0-.164-.486.386.386,0,0,1-.1-.379,10.8,10.8,0,0,0,.266-2.334c.046-2.1-1.6-4.177-4.582-4.177C11.309,4.5,9.7,6.573,9.748,8.677a11.26,11.26,0,0,0,.261,2.334.408.408,0,0,1-.1.379.7.7,0,0,0-.164.486,7.253,7.253,0,0,0,.379,1.715.944.944,0,0,0,.4.686.408.408,0,0,1,.2.287,11.62,11.62,0,0,0,.389,1.7,7.847,7.847,0,0,0,.527,1.024.36.36,0,0,1,.056.195,9.351,9.351,0,0,1-.087,2.416,2.71,2.71,0,0,1-1.234.568,23.856,23.856,0,0,0-2.667.512c-.727.256-2.831,1.049-3.2,2.677a.409.409,0,0,0,.4.5H23.749a.408.408,0,0,0,.4-.5C23.78,22.034,21.676,21.241,20.949,20.985Z" transform="translate(0)" fill="none" stroke="#fff" stroke-width="0.75"/>
    <path id="Path_35" data-name="Path 35" d="M29.127,19.92H27.745V18.538A.537.537,0,0,0,27.207,18h0a.537.537,0,0,0-.538.538V19.92H25.288a.537.537,0,0,0-.538.538h0a.537.537,0,0,0,.538.538H26.67v1.382a.537.537,0,0,0,.538.538h0a.537.537,0,0,0,.538-.538V20.995h1.382a.537.537,0,0,0,.538-.538h0A.537.537,0,0,0,29.127,19.92Z" transform="translate(-5.506 -3.671)" fill="#fff"/>
  </g>
</svg>
