<svg xmlns="http://www.w3.org/2000/svg" width="27.75" height="17.932" viewBox="0 0 27.75 17.932">
  <path id="Icon_material-group" data-name="Icon material-group" d="M19.909,14.864a3.682,3.682,0,1,0-3.682-3.682A3.666,3.666,0,0,0,19.909,14.864Zm-9.818,0a3.682,3.682,0,1,0-3.682-3.682A3.666,3.666,0,0,0,10.091,14.864Zm0,2.455c-2.86,0-8.591,1.436-8.591,4.3v3.068H18.682V21.614C18.682,18.754,12.95,17.318,10.091,17.318Zm9.818,0c-.356,0-.761.025-1.19.061a5.179,5.179,0,0,1,2.418,4.234v3.068H28.5V21.614C28.5,18.754,22.769,17.318,19.909,17.318Z" transform="translate(-1.125 -7.125)" fill="none" stroke="#fff" stroke-width="0.75"/>
</svg>
